<?xml version="1.0" encoding="utf-8"?>
<!-- Generator: Adobe Illustrator 20.1.0, SVG Export Plug-In . SVG Version: 6.00 Build 0)  -->
<svg version="1.1" id="Layer_1" xmlns="http://www.w3.org/2000/svg" xmlns:xlink="http://www.w3.org/1999/xlink" x="0px" y="0px"
	 viewBox="0 0 150 43.3" style="enable-background:new 0 0 150 43.3;" xml:space="preserve">
<style type="text/css">
	.st0{fill:#231F20;}
	.st1{fill:#EB008B;}
</style>
<g>
	<polygon class="st0" points="23.4,28.6 15.6,8.3 19.5,8.3 19.5,5.7 6.1,5.7 6.1,8.3 10,8.3 20.1,34.8 21.3,37.6 24.1,30.3 	"/>
	<polygon class="st1" points="33.5,3.3 26.1,6.5 24.8,9.7 30.7,7.2 26.7,16.9 26.7,17 28,20.3 32.9,8.1 35.5,13.9 36.8,10.9 	"/>
</g>
<polygon points="51.7,18.2 46.9,5.6 49.3,5.6 53,16 56.8,5.6 59.1,5.6 54.3,18.2 "/>
<polygon points="69.1,16.3 69.1,18.2 61.2,18.2 61.2,5.6 68.9,5.6 68.9,7.5 63.4,7.5 63.4,10.9 68.5,10.9 68.5,12.7 63.4,12.7 
	63.4,16.3 "/>
<path d="M81.3,8.6c-0.9-0.8-2.1-1.3-3.5-1.3c-2.5,0-4.3,1.8-4.3,4.6c0,2.8,1.9,4.6,4.3,4.6c1.4,0,2.6-0.4,3.6-1.3v2.3
	c-1.1,0.7-2.3,0.9-3.6,0.9c-3.9,0-6.5-2.7-6.5-6.5c0-3.9,2.7-6.5,6.5-6.5c1.3,0,2.5,0.3,3.5,0.9V8.6z"/>
<polygon points="89.2,18.2 87,18.2 87,7.5 83,7.5 83,5.6 93.1,5.6 93.1,7.5 89.2,7.5 "/>
<path d="M101.3,7.3c-2.4,0-4.3,1.8-4.3,4.6s1.9,4.6,4.3,4.6c2.4,0,4.3-1.8,4.3-4.6S103.7,7.3,101.3,7.3 M101.3,5.4
	c3.6,0,6.5,2.7,6.5,6.5s-2.9,6.5-6.5,6.5c-3.7,0-6.5-2.7-6.5-6.5S97.6,5.4,101.3,5.4"/>
<path d="M112.8,11.9h1.1c1.7,0,2.8-0.7,2.8-2.4c0-1.4-1-2.3-2.9-2.3c-0.3,0-0.7,0-1,0V11.9z M112.8,18.2h-2.2V5.6
	c0.8-0.1,2.1-0.2,3.1-0.2c3.3,0,5.1,1.5,5.1,4.1c0,1.8-1,3.2-2.5,3.7l3.8,5h-2.6l-3.4-4.5h-1.4V18.2z"/>
<rect x="47.5" y="24.7" width="2.1" height="12.6"/>
<polygon points="61.5,34 61.5,24.7 63.6,24.7 63.6,37.3 61.5,37.3 55.2,28 55.2,37.3 53.1,37.3 53.1,24.7 55.3,24.7 "/>
<path d="M66.3,34.3c1,0.7,2,1.3,3.3,1.3c1.2,0,2.3-0.5,2.3-1.8c0-1.2-0.9-1.6-2.3-2c-2.4-0.8-3.5-1.7-3.5-3.8c0-2.3,1.8-3.5,3.9-3.5
	c1.3,0,2.3,0.4,3.2,1v2.2c-1-0.8-1.9-1.3-3.1-1.3s-1.9,0.7-1.9,1.6c0,1,0.7,1.4,2.3,2c2.4,0.7,3.5,1.8,3.5,3.9c0,2.5-2,3.7-4.4,3.7
	c-1.4,0-2.5-0.4-3.3-0.9V34.3z"/>
<polygon points="81.5,37.3 79.4,37.3 79.4,26.6 75.4,26.6 75.4,24.7 85.4,24.7 85.4,26.6 81.5,26.6 "/>
<rect x="87.6" y="24.7" width="2.1" height="12.6"/>
<polygon points="98.1,37.3 95.9,37.3 95.9,26.6 92,26.6 92,24.7 102,24.7 102,26.6 98.1,26.6 "/>
<path d="M104,24.7h2.1v7.9c0,2.4,1.2,3.1,3.1,3.1c1,0,1.7-0.1,2.4-0.2V24.7h2.1v12.3c-1.1,0.3-3.1,0.6-4.6,0.6c-2.8,0-5.2-1-5.2-4.5
	V24.7z"/>
<polygon points="122.1,37.3 119.9,37.3 119.9,26.6 116,26.6 116,24.7 126,24.7 126,26.6 122.1,26.6 "/>
<polygon points="135.9,35.4 135.9,37.3 128.2,37.3 128.2,24.7 135.8,24.7 135.8,26.6 130.3,26.6 130.3,30 135.4,30 135.4,31.8 
	130.3,31.8 130.3,35.4 "/>
</svg>
